<svg xmlns="http://www.w3.org/2000/svg" viewBox="307.5 117.5 575 575"><style>.st4{fill:none;stroke:#333;stroke-width:.25}.st4,.st7,.st9{stroke-miterlimit:10}.st7{stroke-width:.5;stroke:#999}.st9{fill:none;stroke:#2b2b2b}</style><g><g><path fill="none" stroke="#fff" stroke-miterlimit="10" stroke-width="6" d="M312.9 404.5c0 155.1 126.6 281.8 281.5 281.8s281.5-126.7 281.5-281.8-126.5-281.7-281.5-281.7-281.5 126.6-281.5 281.7z"/><path fill="none" stroke="#232323" stroke-miterlimit="10" stroke-width=".5" d="M309.8 404.6c0 156.8 128 284.9 284.7 284.9s284.7-128.1 284.7-284.9-128-284.9-284.7-284.9-284.7 128-284.7 284.9z"/><path d="M315.8 404.6c0 153.3 125.2 278.6 278.6 278.6S873 557.9 873 404.6C873 251.2 747.7 126 594.4 126S315.8 251.2 315.8 404.6z" class="st4"/></g><g><path fill="none" stroke="#fff" stroke-miterlimit="10" stroke-width="4.3" d="M378.6 404.5a218.8 218.8 0 0 1 218.2-218.4A218.7 218.7 0 0 1 815 404.5a218.9 218.9 0 0 1-218.3 218.4 218.7 218.7 0 0 1-218.1-218.4z"/><path fill="none" stroke="#8e8e8e" stroke-miterlimit="10" stroke-width=".5" d="M376.3 404.4a221 221 0 0 1 220.5-220.5 221 221 0 0 1 220.6 220.5 221 221 0 0 1-220.6 220.5 221 221 0 0 1-220.5-220.5z"/><path d="M380.6 404.5a216.6 216.6 0 0 0 216.1 216.2c119.1 0 216.2-97 216.2-216.2 0-119-97.1-216.2-216.2-216.2a216.7 216.7 0 0 0-216.1 216.2z" class="st4"/></g><g><path d="M543.7 281.7l.7 21.9h-2.7c-.5-3.9-1.3-6.9-2.1-8.5a14 14 0 0 0-5.8-6c-2.4-1.3-5.8-2-9.6-2h-13.5v74.1c0 6.1.7 10.3 1.9 11.7 1.7 2 4.5 3.1 8.2 3.1h3.4v2h-40.4v-2h3.4c4 0 6.9-1.4 8.5-3.9 1-1.5 1.6-5.2 1.6-10.9v-74.1h-11.5c-4.3 0-7.6.4-9.4 1-2.4.8-4.7 2.7-6.3 5.1a22 22 0 0 0-3.1 10.4h-2.6l.7-21.9h78.6zm47.8 43.2l35.3 34.5c7.3 7.1 16.5 15.7 27.3 16.6v2h-45.8v-2c3.1 0 7.7-1.9 7.7-5.7 0-1-.3-2.2-.7-2.9-5.3-10.6-28.3-28.3-37.4-37.1v31c0 5 .3 8.5.8 9.9a6.3 6.3 0 0 0 2.9 3.2 13 13 0 0 0 6.4 1.7h3.3v2H551v-2h3.3c3.9 0 6.8-1.2 8.5-3.5 1.1-1.4 1.7-5.4 1.7-11.3v-62.6c0-5-.4-8.3-.9-9.9a5.7 5.7 0 0 0-2.9-3.1 12.4 12.4 0 0 0-6.4-1.8H551v-2h40.4v2h-3.3c-2.1 0-4.5.6-6.4 1.7-1.3.7-2.5 2.1-2.9 3.5s-.8 4.9-.8 9.6v30c.8-.8 4.1-4 9.6-8.9a201 201 0 0 0 25.3-25.5c1.3-2 1.9-4 1.9-5.6 0-1.2-.5-2.4-1.4-3.3s-2.8-1.4-5-1.4H606v-2h35.4v2c-2 0-4 .4-5.6.9-1.7.5-3.9 1.9-6.2 3.5a81 81 0 0 0-9.1 8.2l-14.4 14.2-14.6 14.1zm114.4-45.2c12.4 0 23.1 4.8 32.2 14.2a49 49 0 0 1 13.6 35.4c0 14.5-4.6 26.7-13.7 36.2a44.5 44.5 0 0 1-33.3 14.5 44.2 44.2 0 0 1-33.1-14.1 51 51 0 0 1-13.5-36.4c0-15.1 5.2-27.8 15.5-37.3a46 46 0 0 1 32.3-12.5zm-1.3 4.7c-8.6 0-15.5 3.4-20.6 9.7-6.3 7.9-9.6 19.7-9.6 35.1 0 15.7 3.4 28 9.9 36.4 5 6.4 12 9.7 20.3 9.7 8.9 0 16.4-3.6 22.2-10.6 5.8-7.1 8.8-18.3 8.8-33.5 0-16.5-3.3-29-9.7-37-5-6.5-12.2-9.8-21.3-9.8z" class="st7"/><path d="M665.9 413c-4.9 3.7-9.9 8-14.8 12-1.2 1-8.1 5.8-10.5 8.2-.6.6-.6 1.5 0 2l.2.2c1.6 2.4 2.7.4 4.6-.7l.2-.1c5.2-2.3 10.1-2.3 12 4.5 1.1 3 1.6 6.5 1.9 9.6v.2c1.2 5 2 10 2.7 15 1.1 6.6 1 14.6 1.2 21.4.1 2.7 0 23.9.5 29.9.1.9.9 1.4 1.7 1.2 1.4-.4 1.2-.1 2.4-1.8l.9-1.3c3.6-23.4 9.2-34.9 18.3-54.7a167 167 0 0 1 12.1-22.9l.1-.1c5.4-7.4 13.8-18.5 24.2-17.9l.6.2c3.3 1.7 4.6 4.2 6.1 7 .2.4.2 1-.1 1.4-31.9 46.6-65.8 92.4-97.3 139.2-.3.4-.3.9-.1 1.3l1.9 4.2.2.4 3.3 3.6.3.2 4.3 2.7.3.1 5.3 1.7h.2c11.4 2 25.2.8 35.2-5.2 5.3-3.5 9.8-8.2 9.8-15l.3-1.2c-4.8 3.7-9.9 7-15.3 9.6l-.2.1c-11.5 4.1-24.8 6.6-36.4 1.3l-.3-.2-2.7-2.1-.4-.5-1.3-2.7c-.2-.4-.2-1 .1-1.4 30.3-42.9 59.9-86.3 89.7-129.2l12.1-17.3 4.1-6c.3-.4.3-1 0-1.5l-2.4-4.8c-4.3-7.7-12.4-4.2-18.6-.5l-.2.1c-19 15.7-32 37.2-42.9 59.2-.6 1.3-2.5.9-2.6-.6l-.6-15.5v-.2c-1-6.9-2.2-13.7-3.6-20.5l-.1-.4a33.8 33.8 0 0 1-2.5-6.7c-1.4-1.4-2.8-3.7-3.9-5.5z" class="st7"/><path d="M624.4 450.4l1.7-10.4 1.6-10.2 1.7-10.4c1.4-8.6 2.9-18 4.5-26.6l1.2-6.3.8-6.4.8-6.7.3-6.6c0-6.6-.4-12.4-1.7-18.9a468.3 468.3 0 0 1-32.7 21.2c.6 1 1.9 2.4 2.9 3.1l7.3-3.7c2.6-1.3 4.9-.3 6.6 1.8l-.8 6.5c-4.6 45.5-9.6 91.7-14.3 137.2-.3 4.3-1.2 6.1 1 9.7 3.3 5.3 7.3 4.8 12.7 2.9 9.6-6 17.8-14.1 24.7-23.1-1-.2-3.1-1.7-3.7-2.4-3.3 4.1-10.9 14.2-17.1 11.9-4.2-3.8-3.9-8.3-3.9-13.8.8-9.4 2.3-18.5 3.3-27.9l1.5-10.4 1.6-10.5z" class="st7"/><g ><path d="M539.9 412.9c-1.9-2.6-3.6-4.1-7.2-4.1-4.5-.5-7.9 5-8.5 8.5.9 4.3 4.5 6.4 8.9 5.4 5-.9 6.8-5.6 6.8-9.8z" class="st7"/><path d="M568.7 405.9c-1.1-1.8-2.3-3.1-4.5-3.6-4.5-1-8.2 1.3-10.2 5.4-1.4 7.2 2.2 9.4 9.4 7.9 4.3-2.7 5.3-4.9 5.3-9.7z" class="st7"/><path d="M585.3 515.1c-2 1.7-4.5 3.5-6.4 5.2-3.3 1.9-7.6 4.5-9.8 0-1.2-7.3 1.1-15.1 2.1-22.4.7-4.3 1.5-8.7 2.5-12.9-5.5 2.9-10 5.6-16 7.3 1.5-3.4 3.5-7.1 4.6-10.4a32.3 32.3 0 0 0-.3-22.3c-2.7-4-3.9-4.5-8.1-7-.2 6.5-.6 13-1.2 19.5-1 6.5-2.7 12.6-4.2 18.9a152 152 0 0 1-22.8 40.8 50.9 50.9 0 0 1-11.2 8.3c-10.4 2.3-11.9-6.2-13.6-13.9-.6-18.7 5-29.9 14.8-44.7l5.4-7.3 6.1-6.7 6.6-6 7.3-5.4 7.7-4.5 8.4-4 9.3-3.3 10.3-2.7c6.1-1.2 12.2-2.3 18.4-2.9.8-3.7 2-6.4 1.3-10.4-3.3-3-9.4-.3-13 .8a173.5 173.5 0 0 0-53.6 29.5 232.3 232.3 0 0 0-24.2 26.4c-4.6 7.2-8.7 14.3-12.4 22-5 12.6-8.8 30.7-1.1 43.3 6.5 6.5 12.3 2.3 18.9-.6l7.9-5.6 7.7-7.2c11.3-12.6 21-25.9 29.5-40.8-3.2 14.1-6.4 30.6-3.5 45a116.2 116.2 0 0 0 35.9-23.7 8 8 0 0 1-3.3-2.3z" class="st7"/></g></g><path stroke="#7c7c7c" stroke-miterlimit="10" stroke-width=".5" d="M637.5 155.7c1.3-5.2 10.6-7 15.2-6.9l.1 3.7c-3.2-.2-10.3.3-11 4.3-.7 3.3 7.2 7.4 8.2 11 1.1 4-2.6 7.9-5.8 9.3-2.4 1-6 1.7-10.1 1.8l-.3-3.5c2.9.1 10.9-.8 11.7-4.2 1.1-5.3-9.7-8.6-8-15.5zm22.3-4.8c6.6 2.4 14.4 4.3 21.3 5.8l5 1c3.6.8 2.9.1 1.9 4.4-4.2-1.4-8.4-2.7-12.5-3.7-1.9 9.3-4.8 18.5-6.3 27.9l-4.8-1.2c2.7-9.1 5-18.5 7.2-27.7-5.8-1.4-10.1-2.4-12.8-2.7l1-3.8zm39.6 13.5l3.6 1.8c-3.1 6.2-12.9 21.5-6.6 27.9 4.8 4.8 12.3 4 15.7-1.8 3.4-5.6 6.4-12.4 8.9-18.5l4 1.9c-3.3 7.1-8.4 20.8-15.5 24.2a15 15 0 0 1-11.2-.2c-15.2-7.2-3.6-25.3 1.1-35.3zm40.5 21.7c6.6 4.9 22.5 17.1 15.6 26.5-7.2 9.8-25 5.7-33.5-.4l-.8-.5c6.2-8.3 12.3-17.6 18.7-25.6zm1.4 5.3L727.1 211c6.5 4.5 19.8 6.6 24.8-1 4.2-6.4-6-15.6-10.6-18.6zm34.2 21.7c4 4.1 7.5 7.4 10.3 9.9l-2.5 2.6c-2.1-2.4-5-5.1-7.2-7.6l-8.4 7.6c2.6 2.8 4.9 4.9 6.3 6.3l-2.7 2.5c-1.7-2.2-4-4.6-5.9-6.8l-7.9 7.2c2.2 2.4 5.2 5.5 7.3 8.1l-2.7 2.7-10.2-11.3a94 94 0 0 0 4.7-4.2l15.2-13.6 3.7-3.4zm19.6 18.4l-2.5 35.8 17.9-15.7 2.5 3.1c-1.3 1.3-3.2 2.7-5 4.2l-19.9 16.5c.6-9 1.5-17.9 1.8-26.8.1-2.5.8-6.5.8-9.1l-19.3 16.9-2.7-3.5 26.4-21.4zm22.9 33.7c4 8.2 9.4 15.6 14.2 23.2.8 1.3 1.6 2.1 1.8 2.3l-3.5 2.1a198 198 0 0 0-6.5-11.3c-7.7 5.3-16.4 10.1-23.9 15.7l-2.7-4.2a615 615 0 0 0 24.5-14.9c-3.2-5-5.6-8.8-7.3-10.9l3.4-2zm19.9 39.5c2.1 5.3 4.1 9.7 5.7 13l-3.2 1.4-3.9-9.7-10.6 3.9c1.3 3.6 2.6 6.4 3.5 8.2l-3.5 1.3c-.8-2.6-1.9-6-2.9-8.5l-10 3.7c1.3 3.3 2.4 7.1 3.9 10.2l-3.6 1.5-5.1-14.2c9.7-3.6 20-7.5 29.7-10.8zm1.7 29.7c5.5-.3 10.6 7.1 12.4 11.3l-3.5 1.5c-1-2.9-4.2-9-8.2-8.5-4.3.6-3.5 12.3-9.3 13.1-7.1 1-11.5-6.1-14-11.6l3.2-1.6c1 2.8 4.7 9.6 8.4 9.1 5.2-.7 3.9-12.8 11-13.3zm18.5 44.9c-.2 8.2-.9 19.4-7 25.4-4 4-11.4 2-15.1-1.1-6.8-5.9-9.6-16.6-9.6-25.5 10.6.7 21.2 1.2 31.7 1.2zm-3.5 4.2l-24.2-.8c0 8.1 5.3 20 14.7 20 7.4 0 9.5-13 9.5-19.2zM826.8 408l5.2 2.9c3.8 2 26 14.5 26 15-8.3 4.6-17.7 9.6-26.3 13.6-2.2 1-4.2 2.2-5.9 3.1l-2.3-4c2.3-.9 5.2-2.6 7.4-3.6a60 60 0 0 0 4.4-2.2v-15.9c-1.9-.8-3.2-1.7-4.2-2-3.3-1.4-8.7-2.5-4.3-6.9zm11.6 10.7l.1 12.9c4-2 8.6-4.4 12.6-6.1-4.2-1.8-8.8-4.7-12.7-6.8zm16.6 27.8c-1.8 6.6-3.7 14.7-4.4 21.7-.3 2.3-.8 5.5-.8 7.9l-4-.7c1.2-4.4 2.1-8.7 2.8-12.7-9.3-1.4-18.9-3.5-28.3-4.4l.8-4.9c9.2 2 18.9 3.7 28.1 5.3 1.1-5.9 1.7-10.3 1.8-13l4 .8zM818.5 470c2.9 3.7 23.7 25.4 23.7 27.2a284 284 0 0 1-18.5 2.7 344 344 0 0 0-17.3 2.6l-.9-4.5c.5-.1 1.7-.4 3.3-.5l9.8-1.2 5.2-15.1-3.4-3.2c-2.1-1.9-6.8-4.8-4-6.6.3-.2 1.8-1.4 2.1-1.4zm7.4 13.9a429 429 0 0 1-4.1 12.1c4.5-.4 9.4-.9 13.9-1.7-3.2-3.1-6.7-7.1-9.8-10.4zm-32.6 38l8.1-12.7c8.6 5.8 17.8 11.1 26.8 16.2l-2.4 4c-7.7-5.2-16.2-10.1-24.2-14.9l-5.3 9.3-3-1.9zm9.7 38.8c10.2-11.7-8.2-30.6-19.4-18.3-10.1 11.2 8 31.3 19.4 18.3zm2.5 2.3c-8.8 11.1-25.6 4.9-28.3-8.2-3.8-17.8 20.2-29.4 30-11.7a18.3 18.3 0 0 1-1.7 19.9zm-33.1 32c2.9-4.5 7.2-22.5.5-25.1-8-3.1-17.1 1.1-19.3 7.8l5 4.3c3.5 2.9 3.9 1.9.6 5.7-3.4-2.8-6.6-6-10.1-8.6 3.5-7.6 10.9-16 20.2-15.4 2.3.1 4.5 1.4 6.3 2.7 8.1 5.6 3.8 23.7.5 30.5l-3.7-1.9zm-13.8 14.1l-3.5 2.8c-1.5-1.8-2.9-4-4.3-5.6-5.3-5.9-10.4-13.1-15.7-19l3.5-2.8 7.7 9.8 7.6 9.2 4.7 5.6zm-28.5-14.2c0 3.5.4 36 .2 36-10.3-6.2-20.1-13.6-30.6-19.4 2.2-4 1.2-4.6 5-2.3l8.2 5.6 13.7-8c-.1-1.9-.7-12.1-.9-12.4.5-.1 4.4.4 4.4.5zm-3.5 15.4c-3.5 1.9-7.5 4.5-11 6.4 3.8 2.6 7.7 5.6 11.6 7.9-.5-4.5-.5-10-.5-14.5l-.1.2zm-24.7 33.8c-5.3 2-9.8 4-13.1 5.5l-1.3-3.3c3.1-.9 6.6-2.5 9.8-3.6l-3.7-10.7a80.2 80.2 0 0 0-8.2 3.4c-1.7-4.4-1.5-3.5 2.9-4.8l4.4-1.4L689 619l-5.1 1.6c-1.7.5-3.5 1.6-5.2 2l-1.4-3.6 14.4-5c.4 1.3 1.3 3.5 2 6 2.5 7.8 5.6 16.3 8.2 24.1zm-42.5 15.2l-4 .6c-.4-6.4-1.3-13.5-2.9-19.6-1.3-4.9-5.4-8.3-10.8-7.7-10.4 1.1-8 14.1-7.2 21.1.1 1.3.8 4.6 1.7 9.6l-4.4.6c-1.4-11-6.9-32.6 9.3-34.6 16.6-2 16.8 19.1 18.3 30zm-45.4 9l-23.9-26.7-1.2 23.8-4-.3.5-6.6c.5-8.5 1.3-17.3 2-25.8 7.5 9.2 16.4 17.8 24.1 26.8l1.2-25.6 4.4.5-3.1 33.9zm-41.9-3.7l-4.5-.2c.5-10.5 1.3-21.1 1.1-31.6l4.4.2c-.4 10.5-1 21.1-1 31.6zm-18.6-3.3l-4.3 1.2c-1.5-9.2-3.8-18.9-5.7-28-6.1 7.2-13 14.6-18.9 22l-3.1-3.1c5.2-5.7 10.9-11.6 15.9-17.3l8.6-9.3c1.6 8.7 4 17.8 5.7 26.3.3 2 1.8 6.1 1.8 8.2zm-45.7-10.1c-5.3-2.3-9.8-3.9-13.3-5.1l1.3-3.4c3 1.5 6.4 2.8 9.5 4.2l4.8-10.3c-3.5-1.6-6.4-2.6-8.2-3.4l1.5-3.4 8.1 4 4.5-9.7-4.8-2.4c-1.5-.7-3.6-1.4-5.1-2.2l1.5-3.6 13.7 6.5c-4.5 9.6-9.3 19.3-13.5 28.8zm-28.1-49c1.4 6.4 3.1 13.1 4.4 19.6-3.5.1-8.2.9-9.8 4.3-1.9 4.4 4.1 8 7.1 9.3l5.6-11.8 6.3-14.3 4 1.9c-4.4 9.4-8.8 19.3-13.3 28.7-5.9-2.8-22.6-12.2-10.1-18.9a16 16 0 0 1 5.6-1.6c-1-4.7-2.4-10.2-4-16.2l4.2-1zm-22.1 12.4c-3 4-12.6 2.3-16.7.4l1.3-3.5c2.8 1.4 9.6 3.6 11.9.3 2.4-3.5-5.9-11.1-2.4-15.9 4.2-5.7 12.5-3.6 18.1-1.3l-1.2 3.4c-2.9-1.3-10-3.8-12.4-.7-3 4.1 5.6 11.5 1.4 17.3zm-27.5-8.5c-3.8-2.9-4-1.9-1.3-5.6 5.3-7.4 11.4-14.6 16.7-22.3l3.5 2.6c-3.2 4.2-7 9.3-10.4 13.5l-8.5 11.8zm-13.8-10.9c-2.4-3.6-15.8-20.2-20.1-22.3l3-2.8c2.7 3.5 5.6 6.9 8.3 10l4.4-4c5.5-4.8 11.4-10.2 16.4-15.6l3.4 3.7c-7.3 5.9-14.5 12.6-21.5 18.9 4 4.4 7 7.6 9.1 9.3l-3 2.8zm1.1-41.1c-5.2.4-11.2.8-16.3 1-1.5 0-19.5 1.2-19.7 1l3.5-6.3 11.2-19.4c1.2-2.1 2.4-4.2 3.2-5.9 3.9 1.9 4.6 1.2 2.4 5l-5.1 8.4 8.7 13.4c1.8-.3 12.1-1.4 12.3-1.6.3.7-.1 3.7-.2 4.4zm-15.5-2.7c-2.1-3.6-4.9-7.2-7-10.7-2.4 3.8-5.5 8.1-7.2 12 4.3-.6 9.9-1.3 14.4-1.3h-.2zm-28.1-9.6a183 183 0 0 0-10.9-19.2c-1.1-1.9-3.6-4.7-4.5-6.6l3.5-2c2 4 4.1 7.8 6.3 11.4l11.7-7.2c4-2.4 8.6-5.4 12.5-8.1l2.6 4.2c-8.2 4.4-16.7 9.6-24.7 14.5 3.1 5.1 5.5 8.8 7.2 10.9l-3.7 2.1zm-18.9-38.5l-1.6-4.1c4.5-1.9 9.5-3.4 14.1-5 6.9-2.5 12-5 15.5-6.4l1.5 4c-7.6 2.8-15.2 6-22.7 8.8-3.3 1.1-5.5 2.2-6.8 2.7zm3-18.1c-4.8 1.8-11.9-4.7-14.4-8.4l2.9-2.3c1.3 2.2 3 4.1 4.7 5.4 9.3 7.2 5.8-11.3 11.6-13.5 6.6-2.4 12.6 3.5 16 8.4L376 477c-1.9-2.8-10.7-12.2-12.6-4.4-.9 4.2-.6 10.8-5.5 12.6zM338 442.7l-.7-4.4 14.1-1.9-4.1-20-13.1 2.3-.8-4.5c10.4-1.1 21-3 31.3-4.8l.7 4.5c-5 .5-10.2 1.3-15.1 2l4.2 20 14.1-2.4.7 4.2c-2.8.4-5.7 1.1-8.6 1.4-6 .8-12 1.9-18.1 2.8-1.9.2-3.6.6-4.6.8zm-2.7-49.4c.1-5.7-.2-10.5-.4-14.2l3.5-.2-.1 10.4 11.4.4c0-3.9-.1-6.9-.3-8.9h3.7c0 2.8-.4 6.1-.4 9l10.7.4.3-10.9 3.9-.1-.5 15.1c-8.8-.5-17.9-.5-26.8-.9l-5-.1zm37.6-39.8l-4 14.5a560.3 560.3 0 0 0-30.3-7.7l1.1-4.5c8.8 2.9 18.3 5 27.4 7.2 1.3-5 2.1-8.6 2.4-10.4l3.4.9zm-20-12.7c-5-1.2-7-10.7-6.9-15.2l3.7-.1c-.2 3.1.4 10.2 4.3 11 4 .8 7.6-9.5 13.7-8.3 7 1.3 8.2 10.2 8.3 16.1l-3.5.3c.1-3-.6-10.9-4.2-11.7-5.5-1.3-8.3 9.5-15.4 7.9zm.7-34l1.9-4c9.6 4.4 18.7 9.5 28.7 13.4l-1.9 4c-4.9-2.3-10.4-5.1-15.3-7.3-4.3-2.1-9.1-4-13.4-6.1zm6-17.7l33.9-11.5-21.5-10.4 1.9-3.5c4.2 1.9 8.9 4.7 13 6.7l15.7 8.2-34.1 11.7 23.1 11.1-2.2 3.9-29.8-16.2zm40.8-54.1c-2.4 4.1-5.2 22.7 1.7 24.9 6.6 2.1 12.5.1 16-4.6.8-1.1 2.1-3.4 2.5-4.8-2.8-2-5.7-4.5-8.8-6.2l2.4-3.3c3.5 2.3 7.5 5.2 10.8 7.7-2.8 7.9-9.4 17.1-18.8 17.1-7.9 0-11.7-7.5-12.4-14.3-.6-5.4.2-11.6 2.7-18.1l3.9 1.6zm12.5-17l3.4-3c6.7 7.8 14 16.1 21.1 23.6l-3.3 2.9-8.2-9.4-13-14.1zm13.7-12.7c4.1-4 7.4-7.5 9.9-10.3l2.6 2.5c-2.4 2.1-5.2 5-7.6 7.2l7.6 8.4c2.8-2.6 4.9-4.9 6.3-6.3l2.5 2.7c-2.2 1.7-4.6 4-6.8 5.9l7.2 7.9 4-3.5c1.2-1.2 2.8-2.8 4-3.8l2.7 2.7-11.3 10.2c-4.7-5.6-10.3-11.4-15.1-16.8-1.7-2.1-4-4.6-6-6.8zm25.3-20.8l34.8 8.8-12.5-20.5 3.6-1.9c4 6.6 7.8 13.9 11.6 20.5.3.5 4.6 7.4 4.4 7.7-6.5-1.3-13.1-3.4-19.5-4.8a750 750 0 0 1-15.4-4l13.3 21.9-3.9 2-16.4-29.7zM496 173c-1.6-5.1 4.9-12 8.7-14.2l2.2 3c-2.6 1.4-8.2 6-6.8 9.7 1.3 3.9 12.5 1 14.6 6.7 2.4 6.7-3.8 12.5-8.8 15.9l-2.1-2.9c2.4-1.5 8.7-6.4 7.3-10-1.8-4.9-12.9-1.5-15.1-8.2zm22.3-18.2l4.1-1.5c1.3 3.3 2.6 7.4 3.7 10.8l1 3.4c2.4 6.9 4.7 12.1 6.1 15.6l-4.1 1.5c-2.5-7.7-5.6-15.4-8.3-23l-2.5-6.8zm23 3.3c-.3-5.3 7.1-10.7 11.3-12.4l1.5 3.5c-2.9 1-9 4.3-8.5 8.2.3 2.4 8.4 4.6 9.9 5.4 5 2.4 3.7 8.7.3 12.4-1.8 2-4.9 3.9-8.7 5.6l-1.6-3.2c5.5-1.9 14.1-9.8 4.9-12.3-3-.8-8.9-3.3-9.1-7.2z"/><g ><path d="M614.6 162.6c1.8 2.2 2.2 3.6 1.7 4.5s-1.8 1.4-4.6.9a141.6 141.6 0 0 1-28.9-16.8c-2.1-2.3-2.5-3.7-2.1-4.5.5-.8 1.8-1.2 4.8-.6a139.1 139.1 0 0 1 29.1 16.5z" class="st9"/><path d="M585.3 167.7c-2.8.5-4.2.1-4.8-.8-.6-.9-.3-2.2 1.5-4.4a161.4 161.4 0 0 1 29-16.7c3.1-.6 4.4-.4 4.9.5.5.8.1 2.1-1.9 4.4a160.2 160.2 0 0 1-28.7 17z" class="st9"/><path d="M595.2 139.7c1-2.7 2-3.7 3.1-3.7 1 0 2.1.8 3.1 3.5a135.4 135.4 0 0 1-.2 33.5c-1 3-1.9 4-2.9 4s-1.9-1-2.9-3.9a133.8 133.8 0 0 1-.2-33.4z" class="st9"/></g></g></svg>